<svg width="67" height="67" viewBox="0 0 67 67" fill="none" xmlns="http://www.w3.org/2000/svg">
<path d="M59.9375 66.6667H6.72916C4.87917 66.6667 3.29583 66.0069 1.97917 64.6875C0.662499 63.368 0.00277778 61.7861 0 59.9417V6.72916C0 4.87917 0.659722 3.29583 1.97917 1.97917C3.29861 0.662499 4.88194 0.00277778 6.72916 0H59.9375C61.7875 0 63.3708 0.659722 64.6875 1.97917C66.0042 3.29861 66.6639 4.88194 66.6667 6.72916V59.9375C66.6667 61.7875 66.0069 63.3708 64.6875 64.6875C63.368 66.0042 61.7847 66.6639 59.9375 66.6667ZM59.2958 52.725H7.37083V60.2542H59.2958V52.725ZM7.37083 49.0375H59.2958V41.5042H7.37083V49.0375ZM7.37083 36.8583H59.2958V7.375H7.37083V36.8583Z" fill="#1A4B7C"/>
</svg>
