<svg width="84" height="84" viewBox="0 0 84 84" fill="none" xmlns="http://www.w3.org/2000/svg">
<path d="M16.6667 50H66.6667V41.6667H16.6667V50ZM16.6667 37.5H66.6667V29.1667H16.6667V37.5ZM16.6667 25H66.6667V16.6667H16.6667V25ZM83.3333 83.3333L66.6667 66.6667H8.33333C6.04167 66.6667 4.08056 65.8514 2.45 64.2208C0.819445 62.5903 0.00277778 60.6278 0 58.3333V8.33333C0 6.04167 0.816667 4.08056 2.45 2.45C4.08333 0.819445 6.04445 0.00277778 8.33333 0H75C77.2917 0 79.2542 0.816667 80.8875 2.45C82.5208 4.08333 83.3361 6.04445 83.3333 8.33333V83.3333ZM8.33333 58.3333H70.2083L75 63.0208V8.33333H8.33333V58.3333Z" fill="#1A4B7C"/>
</svg>
